<?xml version="1.0" encoding="UTF-8"?>
<svg version="1.1" xmlns="http://www.w3.org/2000/svg" width="512" height="512">
<path d="M0 0 C22.77 0 45.54 0 69 0 C69 6.6 69 13.2 69 20 C70.340625 20.20625 71.68125 20.4125 73.0625 20.625 C85.63203467 23.1566105 97.49676258 29.52226789 109 35 C113.29 30.71 117.58 26.42 122 22 C125.74037752 23.87018876 127.67750312 25.41030197 130.60083008 28.29443359 C131.95661919 29.62624161 131.95661919 29.62624161 133.33979797 30.98495483 C134.31685292 31.95563563 135.29341928 32.92680845 136.26953125 33.8984375 C137.27504587 34.8949835 138.28063679 35.89145252 139.28630066 36.8878479 C141.38884745 38.97393157 143.48698431 41.06434544 145.58276367 43.15722656 C148.27243433 45.84149464 150.97791552 48.50920721 153.6875658 51.17328453 C155.76771822 53.22374977 157.83658121 55.28532248 159.90244102 57.35017776 C160.89555685 58.3390801 161.89280556 59.32384954 162.89417458 60.30439377 C164.28988007 61.67334453 165.66847183 63.05967846 167.04614258 64.44677734 C167.83571854 65.23128265 168.62529449 66.01578796 169.438797 66.82406616 C171 69 171 69 170.90361023 71.10977173 C169.41493765 74.22386993 166.90464422 76.40297891 164.4375 78.75 C163.91736328 79.25660156 163.39722656 79.76320313 162.86132812 80.28515625 C161.58089916 81.53034405 160.29132446 82.76611502 159 84 C160.48942411 88.90364245 162.55121334 93.30117789 164.8125 97.875 C174 116.87128586 174 116.87128586 174 125 C180.6 125 187.2 125 194 125 C194 147.44 194 169.88 194 193 C187.4 193 180.8 193 174 193 C173.62875 194.670625 173.2575 196.34125 172.875 198.0625 C170.07798125 209.21118038 165.54337156 219.52240775 159.90625 229.51171875 C158.77110164 231.89911803 158.77110164 231.89911803 159.51953125 234.01953125 C162.22379455 237.63710775 165.662951 240.51873546 168.98046875 243.5625 C169.64691406 244.366875 170.31335938 245.17125 171 246 C170.66897578 249.1927564 169.544429 250.82013192 167.27734375 253.015625 C166.73916016 253.54414063 166.20097656 254.07265625 165.64648438 254.6171875 C165.08251953 255.15601563 164.51855469 255.69484375 163.9375 256.25 C163.36966797 256.80429687 162.80183594 257.35859375 162.21679688 257.9296875 C160.81787531 259.29334214 159.40980886 260.64760417 158 262 C158.8716226 263.18998121 159.74754599 264.37681214 160.625 265.5625 C161.16640625 266.2946875 161.7078125 267.026875 162.265625 267.78125 C164.30461174 270.38968349 166.54355361 272.74171318 168.8984375 275.06640625 C170.6836609 278.20004307 170.46428677 280.46689095 170 284 C168.34666678 286.36489436 166.9850263 288.00238691 164.9375 289.9375 C164.47150391 290.43056641 164.00550781 290.92363281 163.52539062 291.43164062 C160.83032221 294.0753744 159.1397016 294.98008573 155.3828125 295.515625 C151.7325983 294.95924131 150.50797304 294.37205808 147.9375 291.8125 C147.27621094 291.17828125 146.61492187 290.5440625 145.93359375 289.890625 C145.29550781 289.26671875 144.65742188 288.6428125 144 288 C142.84391168 287.00836586 141.67845505 286.02744672 140.5 285.0625 C139.675 284.381875 138.85 283.70125 138 283 C133.08064098 287.11619836 128.47352044 291.40410362 124 296 C119.92623969 294.38989473 117.23492931 291.46177729 114.25 288.375 C113.74339844 287.859375 113.23679688 287.34375 112.71484375 286.8125 C111.47196098 285.54616661 110.23534724 284.2736856 109 283 C107.83726562 283.58007812 106.67453125 284.16015625 105.4765625 284.7578125 C97.13520364 288.85213479 88.83242524 292.64501852 80 295.5625 C79.24154785 295.81338379 78.4830957 296.06426758 77.70166016 296.32275391 C74.69628196 297.27972779 72.17279413 298 69 298 C69 304.6 69 311.2 69 318 C46.23 318 23.46 318 0 318 C0 311.4 0 304.8 0 298 C-1.629375 297.649375 -3.25875 297.29875 -4.9375 296.9375 C-15.82597075 294.21538231 -26.87428867 289.90133677 -36.23828125 283.65234375 C-38.00247388 282.80255766 -38.00247388 282.80255766 -39.87109375 283.52734375 C-42.82560048 285.57110345 -45.26328182 288.05343317 -47.75 290.625 C-48.25660156 291.140625 -48.76320313 291.65625 -49.28515625 292.1875 C-50.52803902 293.45383339 -51.76465276 294.7263144 -53 296 C-58.96118297 291.06002739 -64.41486302 285.71470138 -69.87109375 280.2265625 C-70.793423 279.3028183 -71.71575226 278.3790741 -72.66603088 277.42733765 C-75.09633814 274.99324569 -77.52362496 272.55616403 -79.95025635 270.1184082 C-82.43569364 267.6226689 -84.92402932 265.12982292 -87.41210938 262.63671875 C-92.27755096 257.7606114 -97.13980198 252.88133369 -102 248 C-100.16307611 243.99625569 -97.50882084 241.28042066 -94.375 238.25 C-93.859375 237.74339844 -93.34375 237.23679687 -92.8125 236.71484375 C-91.54616661 235.47196098 -90.2736856 234.23534724 -89 233 C-89.24645264 232.49774902 -89.49290527 231.99549805 -89.74682617 231.47802734 C-102.12350973 206.13543188 -102.12350973 206.13543188 -104 193 C-110.6 193 -117.2 193 -124 193 C-124 170.56 -124 148.12 -124 125 C-117.4 125 -110.8 125 -104 125 C-103.67 122.69 -103.34 120.38 -103 118 C-102.30831963 115.2951872 -101.37739852 112.69071199 -100.4375 110.0625 C-100.18081543 109.33683838 -99.92413086 108.61117676 -99.65966797 107.86352539 C-96.74493081 99.89743697 -92.92596534 92.5134854 -89 85 C-93.29 80.71 -97.58 76.42 -102 72 C-99.96986589 67.93973179 -97.57604446 65.34542624 -94.375 62.25 C-93.859375 61.74339844 -93.34375 61.23679688 -92.8125 60.71484375 C-91.54616661 59.47196098 -90.2736856 58.23534724 -89 57 C-90.30629174 54.14324985 -91.38733567 52.59421977 -93.625 50.25 C-96.12004456 47.27542736 -96.91860304 44.90869287 -96.6953125 41.0234375 C-95.25536562 36.83303029 -91.41270092 34.5774701 -88 32 C-87.484375 31.45214844 -86.96875 30.90429688 -86.4375 30.33984375 C-85 29 -85 29 -81.8125 28.375 C-76.44127844 29.25552813 -73.72782509 32.20439627 -70 36 C-65.67495164 34.34136495 -62.90581175 31.128959 -59.75 27.875 C-59.19570312 27.31167969 -58.64140625 26.74835938 -58.0703125 26.16796875 C-56.70895515 24.78313972 -55.35385141 23.39216796 -54 22 C-49.08064098 26.11619836 -44.47352044 30.40410362 -40 35 C-37.04214482 33.88003542 -34.18970824 32.62824589 -31.35546875 31.23046875 C-8.52366205 20 -8.52366205 20 0 20 C0 13.4 0 6.8 0 0 Z M-25 74 C-20.98688311 79.06920029 -16.738512 82.94445033 -11.63671875 86.90234375 C-9.01312634 88.98955727 -6.53655151 91.17584719 -4.0625 93.4375 C0.17970147 97.30364317 4.56258334 100.94400271 9.01953125 104.55859375 C17.03062587 111.12076169 24.85500224 117.88465758 32.4375 124.9375 C36.44994165 128.65451422 40.43534918 131.99148014 45 135 C51.41967145 127.56175855 57.23987504 119.98072948 62.74902344 111.83496094 C67.07305629 105.49237098 71.54320852 99.24959546 76 93 C76.42345703 92.40171387 76.84691406 91.80342773 77.28320312 91.18701172 C81.94345336 84.62666759 86.61529862 78.94074984 93 74 C78.53447454 61.58122193 58.60405685 56.4310813 40 55 C39.0821875 54.9278125 38.164375 54.855625 37.21875 54.78125 C15.28777743 53.96899176 -7.09248639 61.69363351 -25 74 Z M-50 99 C-60.82922177 113.68286374 -68.29304479 132.64862093 -69 151 C-69.0515625 152.14339844 -69.103125 153.28679687 -69.15625 154.46484375 C-69.40311397 164.92570444 -67.99373037 174.74652954 -66 185 C-65.3709375 185.09909668 -64.741875 185.19819336 -64.09375 185.30029297 C-59.77975087 186.27598122 -55.67554273 187.74726627 -51.5 189.1953125 C-49.62518265 189.83517083 -47.75017679 190.47447706 -45.875 191.11328125 C-42.93031798 192.11961058 -39.98704776 193.12949088 -37.046875 194.14892578 C-34.20153207 195.1336693 -31.35135676 196.10314391 -28.5 197.0703125 C-27.62279297 197.37856964 -26.74558594 197.68682678 -25.84179688 198.00442505 C-19.92818663 200.17239491 -19.92818663 200.17239491 -14 199 C-11.53336998 197.02971573 -9.36067562 194.82569055 -7.16796875 192.55859375 C-6.53135818 191.91632339 -5.89474762 191.27405304 -5.23884583 190.61231995 C-3.21213477 188.56325815 -1.19979019 186.500716 0.8125 184.4375 C2.18592392 183.04400956 3.56026276 181.65142022 4.93554688 180.25976562 C8.30106169 176.85020058 11.65376046 173.42848004 15 170 C14.07499699 168.73709894 13.14577038 167.47729092 12.21484375 166.21875 C11.69784912 165.51685547 11.18085449 164.81496094 10.64819336 164.09179688 C8.55637681 161.43697771 6.22005356 159.13718686 3.796875 156.7890625 C-0.12383772 152.88539636 -3.69542089 148.64990888 -7.125 144.3125 C-8.97386736 141.95036345 -8.97386736 141.95036345 -11.1875 139.8125 C-16.39173524 134.60826476 -21.33748733 129.12160336 -25.9375 123.375 C-26.618125 122.59125 -27.29875 121.8075 -28 121 C-28.66 121 -29.32 121 -30 121 C-30.22042969 120.46117187 -30.44085938 119.92234375 -30.66796875 119.3671875 C-32.4455415 116.20821657 -34.83490028 113.73750223 -37.3125 111.125 C-38.26831066 110.10806948 -39.22274305 109.08984174 -40.17578125 108.0703125 C-40.6445166 107.57047852 -41.11325195 107.07064453 -41.59619141 106.55566406 C-43.03983615 104.95585462 -44.38448085 103.29954889 -45.73046875 101.6171875 C-46.47941406 100.75351563 -47.22835937 99.88984375 -48 99 C-48.66 99 -49.32 99 -50 99 Z M123 108 C121.71807863 109.34972232 121.71807863 109.34972232 120.41015625 111.1015625 C116.91470704 115.31134056 112.90997727 118.26770019 108.4375 121.375 C107.63884521 121.940979 106.84019043 122.50695801 106.01733398 123.09008789 C100.55032218 126.95416019 95.03145127 130.74305969 89.51171875 134.53125 C84.04228657 138.33720579 78.70924123 142.33552709 73.35766602 146.30444336 C72.57705811 146.88331299 71.7964502 147.46218262 70.9921875 148.05859375 C69.94587158 148.83674438 69.94587158 148.83674438 68.87841797 149.63061523 C67.28143647 150.79483011 65.64437773 151.90374818 64 153 C64 153.66 64 154.32 64 155 C64.66 155 65.32 155 66 155 C66.36351562 155.82177734 66.36351562 155.82177734 66.734375 156.66015625 C69.98357845 162.66717126 74.92649047 168.59736211 80.3125 172.8125 C83.27866882 175.22682346 84.90934809 177.82797641 87 181 C88.485 181.495 88.485 181.495 90 182 C90.28101563 182.71285156 90.56203125 183.42570312 90.8515625 184.16015625 C92.3492565 187.86363767 94.75243093 190.49282459 97.375 193.4375 C98.45325922 194.67175776 99.53137997 195.90613649 100.609375 197.140625 C101.16560547 197.77291016 101.72183594 198.40519531 102.29492188 199.05664062 C105.09440963 202.24735119 107.85979751 205.46708698 110.625 208.6875 C111.13337402 209.27523193 111.64174805 209.86296387 112.16552734 210.46850586 C114.26931912 212.91243806 116.20854692 215.31282038 118 218 C122.18144624 216.60618459 123.27446208 213.73148629 125.3125 210.0625 C125.70767822 209.35391846 126.10285645 208.64533691 126.51000977 207.9152832 C129.33158084 202.66276718 131.55308253 197.34075242 133.4375 191.6875 C133.67186768 190.98439697 133.90623535 190.28129395 134.14770508 189.55688477 C142.12510572 164.11584312 139.16888821 136.91631261 128 113 C126.55639953 110.16307994 126.55639953 110.16307994 125 108 C124.34 108 123.68 108 123 108 Z M26.62057495 185.13891602 C26.0920694 185.67186279 25.56356384 186.20480957 25.01904297 186.75390625 C24.41857147 187.35452881 23.81809998 187.95515137 23.19943237 188.57397461 C22.55354156 189.23018799 21.90765076 189.88640137 21.2421875 190.5625 C20.57913605 191.22838135 19.91608459 191.8942627 19.23294067 192.58032227 C17.10890583 194.71558381 14.99191607 196.85768286 12.875 199 C11.43925959 200.44576698 10.00306746 201.89108552 8.56640625 203.3359375 C5.03900128 206.88543586 1.51790103 210.44108308 -2 214 C-0.36879508 219.08773274 1.26713003 224.17391567 2.90722656 229.25878906 C3.46317721 230.98461965 4.01789211 232.71084886 4.57128906 234.4375 C8.85203796 247.87561095 8.85203796 247.87561095 14 261 C43.17248259 265.05374448 69.38446005 261.0036576 94 244 C92.60686804 240.8249855 90.99561386 238.79043059 88.47265625 236.42578125 C87.76826416 235.76271973 87.06387207 235.0996582 86.33813477 234.41650391 C85.21169556 233.37502197 85.21169556 233.37502197 84.0625 232.3125 C83.29413818 231.59497559 82.52577637 230.87745117 81.73413086 230.13818359 C76.80971426 225.57373746 71.77463924 221.26899998 66.5078125 217.10546875 C62.74492228 213.9462821 59.37985829 210.42810704 55.99609375 206.87109375 C54.21279653 204.77203546 54.21279653 204.77203546 52 205 C52 204.34 52 203.68 52 203 C50.44759659 201.60674046 48.82970015 200.28619872 47.1875 199 C41.96543842 194.83993799 37.07195055 190.44945698 32.21484375 185.87109375 C29.47173376 183.49828034 29.47173376 183.49828034 26.62057495 185.13891602 Z M-56 209 C-46.13909783 226.82696432 -31.87448107 241.18967202 -14 251 C-13.34 251 -12.68 251 -12 251 C-13.51487146 246.24003624 -15.29528992 241.65389679 -17.25 237.0625 C-17.52457031 236.38509766 -17.79914063 235.70769531 -18.08203125 235.00976562 C-22.82468481 223.91876189 -29.97499482 219.98616856 -40.75 215.0625 C-42.00720424 214.46956785 -43.26372175 213.87517734 -44.51953125 213.27929688 C-50.03760047 210.29566056 -50.03760047 210.29566056 -56 209 Z " fill="#000000" transform="translate(124,97)"/>
<path d="M0 0 C2.98371889 1.52563739 5.3863309 3.60738264 7.8828125 5.80859375 C8.44685791 6.29593994 9.01090332 6.78328613 9.59204102 7.28540039 C11.42365218 8.87022183 13.24686385 10.46439232 15.0703125 12.05859375 C16.30140672 13.12578104 17.53317945 14.19218609 18.765625 15.2578125 C21.28515969 17.43711926 23.80177111 19.61972963 26.31640625 21.8046875 C29.88789897 24.90476896 33.47636523 27.9845959 37.0703125 31.05859375 C41.94233273 35.2257611 46.79311805 39.41643865 51.6328125 43.62109375 C60.26503655 51.11363273 68.94843158 58.5376905 77.8203125 65.74609375 C81.91019375 69.07355494 85.86074604 72.51847104 89.77734375 76.046875 C92.21682795 78.18713797 94.72557242 80.21660498 97.2578125 82.24609375 C102.42699222 86.43240127 107.29209619 90.88777799 112.1237793 95.45385742 C119.4508918 102.93607313 119.4508918 102.93607313 129.0703125 106.05859375 C129.34327148 105.47787109 129.61623047 104.89714844 129.89746094 104.29882812 C131.0552555 102.08735375 132.33739918 100.20826666 133.8359375 98.21484375 C134.66605347 97.1021814 134.66605347 97.1021814 135.51293945 95.96704102 C136.10937256 95.17225342 136.70580566 94.37746582 137.3203125 93.55859375 C142.45780915 86.65710957 147.47394175 79.68693334 152.3828125 72.62109375 C173.48332386 42.37082884 173.48332386 42.37082884 189.0703125 39.05859375 C190.65723889 38.97992416 192.24709499 38.95075261 193.8359375 38.9609375 C195.17011719 38.96577148 195.17011719 38.96577148 196.53125 38.97070312 C197.91183594 38.98327148 197.91183594 38.98327148 199.3203125 38.99609375 C200.72410156 39.00286133 200.72410156 39.00286133 202.15625 39.00976562 C204.46100291 39.02152457 206.76562477 39.03795949 209.0703125 39.05859375 C209.6115529 52.4542937 209.67022133 65.12733068 200.92578125 76.1796875 C195.42545716 81.74948937 189.19196183 86.20075776 182.7578125 90.62109375 C180.97972399 91.8543957 179.20239641 93.08879533 177.42578125 94.32421875 C176.53294434 94.94490234 175.64010742 95.56558594 174.72021484 96.20507812 C163.67496965 103.93084757 152.80750266 111.91096122 142.0703125 120.05859375 C142.53323263 124.81638394 144.43758484 126.97065597 147.6953125 130.37109375 C148.61772658 131.34975259 149.53960009 132.32892122 150.4609375 133.30859375 C151.32203125 134.21609375 152.183125 135.12359375 153.0703125 136.05859375 C155.43890284 138.69493778 157.75481684 141.37555909 160.0703125 144.05859375 C160.50601563 144.56261719 160.94171875 145.06664062 161.390625 145.5859375 C167.35827749 152.49501111 173.238252 159.45794367 178.9921875 166.546875 C181.59375538 169.69125122 184.312991 172.71729205 187.04296875 175.75 C189.26563205 178.28100966 191.38887886 180.87772341 193.5078125 183.49609375 C197.14241885 187.9785671 200.93755762 192.26737393 204.82421875 196.53125 C207.13218848 199.12821768 209.32587113 201.79263388 211.5078125 204.49609375 C214.58367838 208.29946878 217.75784416 211.95942027 221.0703125 215.55859375 C225.19872324 220.0448853 229.07710262 224.67941509 232.90625 229.421875 C234.98932161 231.95991351 237.131483 234.42403156 239.3203125 236.87109375 C239.96355469 237.59296875 240.60679687 238.31484375 241.26953125 239.05859375 C242.40535188 240.32006915 243.55240461 241.57160388 244.71484375 242.80859375 C246.1328125 244.37109375 246.1328125 244.37109375 248.0703125 247.05859375 C247.83749662 251.03309337 245.45435001 253.13924969 242.7578125 255.87109375 C241.97792969 256.68191406 241.19804687 257.49273437 240.39453125 258.328125 C238.0703125 260.05859375 238.0703125 260.05859375 236.07421875 260.078125 C233.40543333 258.72032189 231.50287606 256.98409136 229.3203125 254.93359375 C228.43472656 254.11246094 227.54914063 253.29132813 226.63671875 252.4453125 C225.78980469 251.65769531 224.94289063 250.87007812 224.0703125 250.05859375 C222.80474132 248.94839963 221.53430423 247.84371402 220.2578125 246.74609375 C216.08995445 243.11711027 212.04432886 239.36030404 207.99121094 235.60449219 C203.893736 231.81000789 199.75637617 228.0632829 195.59765625 224.3359375 C192.73949047 221.760496 189.90320989 219.16173611 187.0703125 216.55859375 C182.61220353 212.46250727 178.12503457 208.40064555 173.6171875 204.359375 C171.33379669 202.29661858 169.07040911 200.21377455 166.81152344 198.12426758 C161.33061471 193.05882393 155.72298506 188.17539903 150.02734375 183.35302734 C145.99186369 179.91266724 142.18327692 176.32720639 138.5234375 172.484375 C137.10777548 170.94932384 137.10777548 170.94932384 135.0703125 170.05859375 C135.0703125 169.39859375 135.0703125 168.73859375 135.0703125 168.05859375 C134.4928125 167.79046875 133.9153125 167.52234375 133.3203125 167.24609375 C131.01481207 166.02930186 129.04975058 164.75525496 127.0703125 163.05859375 C127.0703125 162.39859375 127.0703125 161.73859375 127.0703125 161.05859375 C126.52246094 160.83558594 125.97460938 160.61257813 125.41015625 160.3828125 C121.27890935 158.04476125 118.17204644 154.40732778 114.82421875 151.078125 C112.33981903 148.84522168 112.33981903 148.84522168 109.84106445 149.03369141 C105.69309163 150.56802834 103.09742116 153.36174072 99.984375 156.4375 C99.32319672 157.08299301 98.66201843 157.72848602 97.98080444 158.39353943 C96.5888047 159.76094056 95.20224361 161.13389728 93.82080078 162.51196289 C91.70387704 164.61259512 89.55481155 166.67611964 87.40234375 168.74023438 C86.0525664 170.07468085 84.70483819 171.41120386 83.359375 172.75 C82.71368561 173.36178604 82.06799622 173.97357208 81.40274048 174.60389709 C78.19193812 177.88188043 77.08849287 179.19319735 76.98901367 183.9284668 C77.29902601 185.31739872 77.66272247 186.69510194 78.0703125 188.05859375 C78.27897949 188.78849014 78.48764648 189.51838654 78.70263672 190.270401 C79.44237271 192.68430748 80.25297631 195.06457989 81.08203125 197.44921875 C81.68074476 199.22772789 82.27903997 201.00637788 82.87695312 202.78515625 C83.81956257 205.5609326 84.76688422 208.33491989 85.72192383 211.10644531 C86.64667281 213.79981527 87.55293632 216.49885833 88.45703125 219.19921875 C88.89434822 220.44303314 88.89434822 220.44303314 89.34049988 221.7119751 C89.59769302 222.48668152 89.85488617 223.26138794 90.11987305 224.05957031 C90.35224167 224.73715393 90.58461029 225.41473755 90.82402039 226.112854 C91.15066184 228.69336403 90.42697871 229.87853958 89.0703125 232.05859375 C87.1953125 234.30859375 87.1953125 234.30859375 85.0703125 236.05859375 C83.7503125 236.05859375 82.4303125 236.05859375 81.0703125 236.05859375 C79.58707759 232.97720243 78.10919461 229.89327396 76.6328125 226.80859375 C75.95653809 225.39876221 75.95653809 225.39876221 75.26660156 223.96044922 C72.97466954 219.15605288 70.73307769 214.34008743 68.61328125 209.45703125 C68.22648193 208.57047852 67.83968262 207.68392578 67.44116211 206.77050781 C66.71395078 205.09210849 65.99668739 203.40935042 65.29125977 201.72167969 C60.31991151 190.27887376 53.28508144 186.16251685 42.1953125 181.12109375 C40.88757681 180.51142477 39.58069341 179.89992439 38.2746582 179.28662109 C35.71189048 178.08428315 33.14605737 176.88894005 30.57763672 175.69873047 C26.09783843 173.60383385 21.66992769 171.41678997 17.2578125 169.18359375 C16.6076416 168.85625244 15.9574707 168.52891113 15.28759766 168.19165039 C13.88078748 167.48270824 12.4753392 166.77106398 11.0703125 166.05859375 C12.85808518 162.26363992 14.7441108 159.70443601 18.0703125 157.05859375 C23.21900454 157.41032613 27.96769011 159.28282924 32.79296875 161 C34.48237151 161.58933712 36.1718262 162.17852536 37.86132812 162.76757812 C40.50429231 163.69548222 43.1463429 164.62587599 45.78735352 165.55932617 C48.34945444 166.46285522 50.91471774 167.35689871 53.48046875 168.25 C54.66033104 168.67183311 54.66033104 168.67183311 55.86402893 169.10218811 C56.6050737 169.35923019 57.34611847 169.61627228 58.10961914 169.88110352 C58.75548477 170.10903091 59.4013504 170.33695831 60.06678772 170.5717926 C62.53937334 171.17256257 64.53344552 171.31850773 67.0703125 171.05859375 C68.96333032 169.90846347 68.96333032 169.90846347 70.57543945 168.18457031 C71.21572586 167.55681702 71.85601227 166.92906372 72.51570129 166.2822876 C73.1898558 165.59487488 73.86401031 164.90746216 74.55859375 164.19921875 C75.6133918 163.14803864 75.6133918 163.14803864 76.6894989 162.07562256 C78.17220093 160.59194147 79.64869795 159.10203723 81.11938477 157.60644531 C83.37609802 155.31541035 85.65583534 153.04934004 87.93945312 150.78515625 C89.37643813 149.34127359 90.81203363 147.89600645 92.24609375 146.44921875 C92.93036942 145.76990295 93.61464508 145.09058716 94.31965637 144.39068604 C95.25644478 143.43014313 95.25644478 143.43014313 96.2121582 142.45019531 C96.76555374 141.8906012 97.31894928 141.33100708 97.88911438 140.75445557 C99.45134124 138.8559928 99.45134124 138.8559928 99.0703125 135.05859375 C97.44977438 133.66956108 95.77326037 132.34526547 94.0703125 131.05859375 C89.0703125 125.81535051 89.0703125 125.81535051 89.0703125 123.05859375 C88.4721875 122.79691406 87.8740625 122.53523438 87.2578125 122.265625 C84.92483478 120.97832122 83.75351967 119.79311914 82.0703125 117.74609375 C78.88369498 113.97138801 75.56968756 110.35135825 72.1953125 106.74609375 C68.41500582 102.6908984 64.7932476 98.57224128 61.3203125 94.24609375 C58.07781546 90.20760465 54.6630403 86.54166824 50.953125 82.93359375 C48.53569394 80.52619353 46.33364177 77.96763393 44.109375 75.3828125 C41.52277905 72.43448953 38.86194536 69.55944769 36.1953125 66.68359375 C31.87263703 62.0193554 27.59214445 57.32165038 23.34765625 52.5859375 C20.7722131 49.72776989 18.17327153 46.891661 15.5703125 44.05859375 C7.29418902 35.04045335 7.29418902 35.04045335 3.5546875 30.84375 C2.17710728 29.29938726 0.79592859 27.75813534 -0.59960938 26.22998047 C-2.42982567 24.22491843 -4.24293018 22.20533584 -6.0546875 20.18359375 C-6.64813965 19.54059326 -7.2415918 18.89759277 -7.85302734 18.23510742 C-8.39652832 17.62256104 -8.9400293 17.01001465 -9.5 16.37890625 C-9.99258301 15.83508301 -10.48516602 15.29125977 -10.99267578 14.73095703 C-11.9296875 13.05859375 -11.9296875 13.05859375 -11.7019043 11.00073242 C-10.57088071 8.15618844 -8.75736649 6.41429473 -6.6171875 4.24609375 C-5.44736328 3.02986328 -5.44736328 3.02986328 -4.25390625 1.7890625 C-1.9296875 0.05859375 -1.9296875 0.05859375 0 0 Z " fill="#FC5C00" transform="translate(42.9296875,128.94140625)"/>
<path d="M0 0 C7.81819589 6.21901945 12.56231148 12.62443445 15.75 22.1875 C16.68256757 35.17683403 15.97510063 45.95704138 7.5625 56.5625 C1.28530241 63.14122236 -7.24928633 68.0300767 -16.421875 68.5234375 C-29.85266673 68.79327856 -38.10934742 66.98545773 -48.109375 57.44140625 C-54.25 50.97582117 -54.25 50.97582117 -54.25 47.1875 C-152.92 47.1875 -251.59 47.1875 -353.25 47.1875 C-353.25 31.6775 -353.25 16.1675 -353.25 0.1875 C-343.02 0.1875 -332.79 0.1875 -322.25 0.1875 C-322.25 5.4675 -322.25 10.7475 -322.25 16.1875 C-288.33781713 16.26525598 -254.4259776 16.29713658 -220.51372581 16.26490569 C-216.51077841 16.26114174 -212.50783076 16.25776923 -208.50488281 16.25463867 C-207.70796253 16.25400885 -206.91104225 16.25337903 -206.08997287 16.25273012 C-193.18350948 16.24346358 -180.27728601 16.26591369 -167.37087284 16.30006976 C-154.1292564 16.33440751 -140.88795544 16.33469691 -127.64633 16.30332941 C-119.47422556 16.28504553 -111.30303529 16.29337062 -103.13101609 16.33565276 C-96.86628738 16.36522277 -90.60251007 16.34743696 -84.3378315 16.31187057 C-81.7667058 16.30471508 -79.19548464 16.31300158 -76.62446785 16.33772469 C-73.11736156 16.36915926 -69.61482458 16.34544601 -66.10787964 16.30775452 C-65.08647349 16.33007914 -64.06506735 16.35240377 -63.0127095 16.37540489 C-57.61412698 16.28426171 -57.61412698 16.28426171 -53.38305306 13.24320877 C-51.7874 10.90377118 -51.7874 10.90377118 -50.55309212 8.48918051 C-46.30235737 0.98101348 -38.33683166 -2.90315702 -30.39453125 -5.39453125 C-19.36828888 -7.54354388 -9.63835256 -5.37523508 0 0 Z " fill="#000000" transform="translate(496.25,443.8125)"/>
<path d="M0 0 C9.39614585 5.67803906 15.70726826 13.838908 18.546875 24.5390625 C19.75876516 35.6066696 19.4187285 46.05921021 12.55859375 55.18359375 C5.18657688 63.87977254 -3.22014753 69.73917606 -14.75 70.859375 C-26.36556458 71.23979742 -35.83328176 68.47988089 -44.453125 60.5390625 C-47.8491616 57.05226323 -50.26312912 53.91905425 -52.453125 49.5390625 C-184.618125 49.0440625 -184.618125 49.0440625 -319.453125 48.5390625 C-319.453125 53.8190625 -319.453125 59.0990625 -319.453125 64.5390625 C-329.683125 64.5390625 -339.913125 64.5390625 -350.453125 64.5390625 C-350.453125 49.0290625 -350.453125 33.5190625 -350.453125 17.5390625 C-251.783125 17.5390625 -153.113125 17.5390625 -51.453125 17.5390625 C-50.793125 15.5590625 -50.133125 13.5790625 -49.453125 11.5390625 C-37.89418379 -3.63204784 -17.12015622 -8.46549161 0 0 Z " fill="#000000" transform="translate(493.453125,3.4609375)"/>
<path d="M0 0 C7.88325692 5.6308978 12.918336 13.20023516 15.5390625 22.4921875 C15.97511604 25.42298973 16.06406031 28.28186938 16.0390625 31.2421875 C16.03406738 32.0256958 16.02907227 32.8092041 16.02392578 33.61645508 C15.75170097 42.76602481 12.78283964 51.17171315 6.40234375 57.8984375 C-3.4054194 66.28746762 -12.70305165 69.12667659 -25.51171875 68.8046875 C-35.88893833 67.98354253 -44.04058611 62.53247518 -50.8359375 54.8671875 C-52.89337511 52.41895168 -53.97841662 50.45722927 -55.4609375 47.4921875 C-101.9909375 46.9971875 -101.9909375 46.9971875 -149.4609375 46.4921875 C-149.4609375 36.5921875 -149.4609375 26.6921875 -149.4609375 16.4921875 C-146.64481934 16.50902588 -143.82870117 16.52586426 -140.92724609 16.54321289 C-131.61922575 16.59231103 -122.31167902 16.59197065 -113.00357628 16.56734562 C-107.36023812 16.55393305 -101.71793135 16.55713464 -96.07470703 16.59838867 C-90.62770316 16.63759565 -85.18232595 16.63305154 -79.7353096 16.59826469 C-77.65810028 16.59266891 -75.58078675 16.60279704 -73.50373459 16.62895393 C-62.59879047 17.2928255 -62.59879047 17.2928255 -52.89529419 13.49504089 C-51.34859142 11.18635423 -50.39244735 9.09649992 -49.4609375 6.4921875 C-36.68698581 -7.61744355 -16.08328692 -9.85420437 0 0 Z " fill="#000000" transform="translate(496.4609375,224.5078125)"/>
<path d="M0 0 C3.77928665 2.10551807 6.33691213 4.06003589 8.625 7.8125 C9.2025 8.67875 9.78 9.545 10.375 10.4375 C12.64496623 16.56640881 12.74967406 23.09044102 10.0625 29.125 C6.74289238 34.85779755 1.90090745 38.76076103 -4.375 40.8125 C-11.26105409 41.71481054 -17.00114465 41.50045457 -22.69140625 37.30078125 C-27.79139396 32.79243945 -30.79141441 28.42598068 -31.6640625 21.52734375 C-32.05584286 14.85676761 -30.55280108 10.04974345 -26.375 4.8125 C-18.51569717 -2.46576488 -9.98263793 -4.71772074 0 0 Z " fill="#5C00FB" transform="translate(485.375,17.1875)"/>
<path d="M0 0 C5.93902433 2.67141442 9.74406231 7.14484342 13.0234375 12.66015625 C14.81460056 20.36215739 13.92448992 26.31310445 10.06640625 33.21875 C6.86100272 38.03127045 2.19462982 40.85362382 -3.3515625 42.34765625 C-10.16963664 43.2723297 -15.72174813 42.40665188 -21.3515625 38.34765625 C-26.54123792 33.15798083 -29.45045084 27.78060338 -29.7890625 20.41015625 C-29.57076349 14.41602918 -27.83231288 9.93776685 -23.66796875 5.58984375 C-16.58916064 -0.71257895 -9.41579607 -2.61202316 0 0 Z " fill="#5C00FB" transform="translate(483.3515625,453.65234375)"/>
<path d="M0 0 C6.49894754 3.69547997 10.94505944 7.60645505 13.1875 14.8125 C14.29022858 21.78894614 13.04864802 27.89056331 9.1875 33.8125 C4.00041089 39.67780415 -1.36690234 41.81615439 -9.125 42.3125 C-16.59636008 42.18017346 -21.19506803 38.49704562 -26.25 33.3125 C-29.92015007 27.44025989 -30.64354207 21.60810984 -29.8125 14.8125 C-27.75152805 7.82740944 -23.02673107 3.36895901 -16.92578125 -0.33203125 C-11.57581116 -2.49773079 -5.36552417 -1.67122884 0 0 Z " fill="#5C00FB" transform="translate(483.8125,235.1875)"/>
<path d="" fill="#000000" transform="translate(0,0)"/>
<path d="" fill="#000000" transform="translate(0,0)"/>
</svg>
